# xmcd CD database file
#
# Track frame offsets:
#	182
#	14227
#	28067
#	41377
#	50870
#	67792
#	77957
#	90625
#	106455
#	123907
#	141217
#	155767
#
# Disc length: 2275 seconds
#
# Revision: 0
# Processed by: cddbd v1.4PL0 Copyright (c) Steve Scherf et al.
# Submitted via: CDex 1.50beta9
#
DISCID=a508e10c
DTITLE=PHILOMENA BEGLEY  RAY LYNAM - SIMPLY DIVINE
DYEAR=1900
DGENRE=Country
TTITLE0=You Don't Know Love
TTITLE1=Sinply Divne
TTITLE2=Together Alone
TTITLE3=Near You
TTITLE4=Don't Cross Over An Old Love
TTITLE5=Making Plans
TTITLE6=Sweetest Of All
TTITLE7=I'll Never Need Another You
TTITLE8=She Sang The Melody
TTITLE9=As Long As We're Dreaming
TTITLE10=We're Gonna Hold On
TTITLE11=Fire Of Two Old Flames
EXTD=
EXTT0=
EXTT1=
EXTT2=
EXTT3=
EXTT4=
EXTT5=
EXTT6=
EXTT7=
EXTT8=
EXTT9=
EXTT10=
EXTT11=
PLAYORDER=
